# xmcd
#
# Track frame offsets: 
#        150
#        23385
#        42017
#        60022
#        75255
#        94087
#        114025
#        135592
#        155057
#        183270
#
# Disc length: 2748 seconds
#
# Revision: 0
# Processed by: cddbd v1.5.2PL0 Copyright (c) Steve Scherf et al.
# Submitted via: ExactAudioCopy v0.99pb4
#
DISCID=5e0aba0a
DTITLE=Strength in Numbers - Telluride Sessions
DYEAR=1988
DGENRE=Bluegrass
TTITLE0=Future Man
TTITLE1=Texas Red
TTITLE2=Pink Flamingos
TTITLE3=Duke and Cookie
TTITLE4=One Winter's Night
TTITLE5=Macedonia
TTITLE6=The Lochs of Dread
TTITLE7=No Apologies
TTITLE8=Slopes
TTITLE9=Blue Men of the Sahara
EXTD=
EXTT0=
EXTT1=
EXTT2=
EXTT3=
EXTT4=
EXTT5=
EXTT6=
EXTT7=
EXTT8=
EXTT9=
PLAYORDER=
